{
.appVersion = "3108";
.formatVersion = 3;
DisplayStrings = (
"4"
);
date = "2022-02-21 08:08:28 +0000";
familyName = "New Font";
fontMaster = (
{
guides = (
{
pos = (632,650);
},
{
pos = (416,175);
},
{
pos = (170,350);
},
{
pos = (127,568);
}
);
iconName = SemiLight;
id = m01;
metricValues = (
{
over = 4;
pos = 700;
},
{
over = 4;
pos = 650;
},
{
over = 4;
pos = 350;
},
{
over = -4;
},
{
over = -4;
pos = -300;
},
{
over = -16;
pos = 10;
}
);
name = "QBeginners Light";
stemValues = (
50,
50
);
}
);
glyphs = (
{
glyphname = A;
lastChange = "2022-02-21 18:27:32 +0000";
layers = (
{
layerId = m01;
shapes = (
{
closed = 1;
nodes = (
(2,0,o),
(8,1,o),
(12,4,cs),
(22,10,o),
(26,18,o),
(30,25,cs),
(339,619,ls),
(347,635,o),
(337,650,o),
(316,650,cs),
(294,650,o),
(293,639,o),
(286,625,cs),
(-23,32,ls),
(-28,23,o),
(-28,15,o),
(-25,10,cs),
(-21,3,o),
(-13,0,o),
(-6,0,cs)
);
},
{
closed = 1;
nodes = (
(387,0,o),
(393,11,o),
(392,26,cs),
(343,622,l),
(342,632,o),
(339,639,o),
(331,645,c),
(294,613,l),
(342,24,ls),
(343,14,o),
(347,0,o),
(369,0,c)
);
},
{
closed = 1;
nodes = (
(343,309,l),
(343,350,l),
(163,350,l),
(163,309,l)
);
}
);
width = 419;
}
);
unicode = 65;
},
{
glyphname = B;
lastChange = "2022-02-21 19:38:35 +0000";
layers = (
{
layerId = m01;
shapes = (
{
closed = 1;
nodes = (
(113,600,l),
(297,600,o),
(388,558,o),
(388,488,cs),
(388,370,o),
(204,374,o),
(78,374,c),
(71,324,l),
(243,324,o),
(438,321,o),
(438,493,cs),
(438,597,o),
(311,650,o),
(113,650,c)
);
},
{
closed = 1;
nodes = (
(19,-4,o),
(22,15,o),
(24,25,c),
(128,619,l),
(131,637,o),
(130,650,o),
(109,650,cs),
(87,650,o),
(82,639,o),
(79,623,c),
(-26,27,l),
(-29,12,o),
(-21,-4,o),
(-3,-4,cs)
);
},
{
closed = 1;
nodes = (
(62,324,l),
(246,324,o),
(334,244,o),
(334,174,cs),
(334,56,o),
(133,46,o),
(7,46,c),
(0,-4,l),
(172,-4,o),
(384,7,o),
(384,179,cs),
(384,283,o),
(260,374,o),
(62,374,c)
);
}
);
width = 386;
}
);
unicode = 66;
},
{
glyphname = C;
lastChange = "2022-02-21 21:41:17 +0000";
layers = (
{
layerId = m01;
shapes = (
{
closed = 1;
nodes = (
(205,-4,o),
(288,47,o),
(385,193,cs),
(397,211,o),
(381,227,o),
(363,227,cs),
(353,227,o),
(345,223,o),
(340,216,cs,{
name = "🔷";
}),
(252,89,o),
(187,46,o),
(128,46,cs),
(61,46,o),
(56,89,o),
(56,154,cs),
(56,200,o),
(74,310,o),
(87,374,cs),
(106,468,o),
(148,599,o),
(385,600,c),
(438,600,l),
(453,600,o),
(463,613,o),
(463,626,cs),
(463,638,o),
(454,650,o),
(442,650,c),
(386,650,l),
(113,647,o),
(57,498,o),
(37,386,cs),
(25,318,o),
(5,203,o),
(5,153,cs),
(5,70,o),
(27,-4,o),
(128,-4,cs)
);
}
);
width = 384;
}
);
unicode = 67;
},
{
glyphname = D;
lastChange = "2022-02-21 19:51:28 +0000";
layers = (
{
layerId = m01;
shapes = (
{
closed = 1;
nodes = (
(0,0,l),
(61,0,ls),
(253,0,o),
(444,150,o),
(444,350,cs),
(444,543,o),
(333,650,o),
(144,650,c),
(115,650,l),
(115,600,l),
(148,600,ls),
(301,600,o),
(394,511,o),
(394,350,cs),
(394,177,o),
(226,50,o),
(61,50,cs),
(2,50,l)
);
},
{
closed = 1;
nodes = (
(19,0,o),
(22,15,o),
(24,25,c),
(128,619,l),
(131,637,o),
(130,650,o),
(109,650,cs),
(87,650,o),
(82,639,o),
(79,623,c),
(-26,27,l),
(-29,12,o),
(-21,0,o),
(-3,0,cs)
);
}
);
width = 418;
}
);
unicode = 68;
},
{
glyphname = E;
lastChange = "2022-02-21 19:39:24 +0000";
layers = (
{
layerId = m01;
shapes = (
{
closed = 1;
nodes = (
(19,0,o),
(22,15,o),
(24,25,c),
(128,619,l),
(131,637,o),
(130,650,o),
(109,650,cs),
(87,650,o),
(82,639,o),
(79,623,c),
(-26,27,l),
(-29,12,o),
(-21,0,o),
(-3,0,cs)
);
},
{
closed = 1;
nodes = (
(380,309,ls),
(400,309,o),
(406,318,o),
(406,330,cs),
(406,342,o),
(400,350,o),
(380,350,cs),
(54,350,l),
(54,309,l)
);
},
{
closed = 1;
nodes = (
(433,600,ls),
(453,600,o),
(459,613,o),
(459,625,cs),
(459,637,o),
(453,650,o),
(433,650,cs),
(110,650,l),
(110,600,l)
);
},
{
closed = 1;
nodes = (
(325,0,ls),
(345,0,o),
(351,14,o),
(351,26,cs),
(351,38,o),
(345,50,o),
(325,50,cs),
(-2,50,l),
(-2,0,l)
);
}
);
width = 380;
}
);
unicode = 69;
},
{
glyphname = F;
lastChange = "2022-02-21 19:40:42 +0000";
layers = (
{
layerId = m01;
shapes = (
{
closed = 1;
nodes = (
(19,0,o),
(22,15,o),
(24,25,c),
(128,619,l),
(131,637,o),
(130,650,o),
(109,650,cs),
(87,650,o),
(82,639,o),
(79,623,c),
(-26,27,l),
(-29,12,o),
(-21,0,o),
(-3,0,cs)
);
},
{
closed = 1;
nodes = (
(380,309,ls),
(400,309,o),
(406,318,o),
(406,330,cs),
(406,342,o),
(400,350,o),
(380,350,cs),
(54,350,l),
(54,309,l)
);
},
{
closed = 1;
nodes = (
(433,600,ls),
(453,600,o),
(459,613,o),
(459,625,cs),
(459,637,o),
(453,650,o),
(433,650,cs),
(110,650,l),
(110,600,l)
);
}
);
width = 380;
}
);
unicode = 70;
},
{
glyphname = G;
lastChange = "2022-02-21 20:01:55 +0000";
layers = (
{
layerId = m01;
shapes = (
{
closed = 1;
nodes = (
(199,-4,o),
(312,169,o),
(409,315,cs),
(421,333,o),
(405,349,o),
(387,349,cs),
(377,349,o),
(369,345,o),
(364,338,cs,{
name = "🔷";
}),
(276,203,o),
(169,46,o),
(116,46,cs),
(64,46,o),
(55,89,o),
(55,154,cs),
(55,200,o),
(73,310,o),
(86,374,cs),
(105,468,o),
(148,599,o),
(385,600,c),
(441,600,l),
(456,600,o),
(466,613,o),
(466,626,cs),
(466,638,o),
(457,650,o),
(445,650,c),
(386,650,l),
(113,647,o),
(57,498,o),
(37,386,cs),
(25,318,o),
(5,203,o),
(5,153,cs),
(5,70,o),
(30,-4,o),
(116,-4,cs)
);
},
{
closed = 1;
nodes = (
(357,0,o),
(359,18,o),
(360,23,cs),
(413,323,ls),
(414,330,o),
(414,338,o),
(412,342,cs),
(409,347,o),
(403,350,o),
(395,350,c),
(385,350,o),
(378,348,o),
(373,344,cs),
(368,340,o),
(364,333,o),
(362,323,cs),
(309,23,ls),
(308,15,o),
(309,0,o),
(331,0,cs)
);
}
);
width = 387;
}
);
unicode = 71;
},
{
glyphname = H;
lastChange = "2022-02-21 19:03:30 +0000";
layers = (
{
layerId = m01;
shapes = (
{
closed = 1;
nodes = (
(419,0,o),
(425,13,o),
(427,22,c),
(533,624,l),
(536,639,o),
(529,650,o),
(509,650,cs),
(491,650,o),
(484,639,o),
(483,631,c),
(377,27,l),
(375,15,o),
(377,0,o),
(400,0,cs)
);
},
{
closed = 1;
nodes = (
(19,0,o),
(22,15,o),
(24,25,c),
(128,619,l),
(131,637,o),
(130,650,o),
(109,650,cs),
(87,650,o),
(82,639,o),
(79,623,c),
(-26,27,l),
(-29,12,o),
(-21,0,o),
(-3,0,cs)
);
},
{
closed = 1;
nodes = (
(448,309,l),
(448,350,l),
(64,350,l),
(64,309,l)
);
}
);
width = 454;
}
);
unicode = 72;
},
{
glyphname = I;
lastChange = "2022-02-21 18:50:05 +0000";
layers = (
{
layerId = m01;
shapes = (
{
closed = 1;
nodes = (
(65,0,o),
(68,15,o),
(70,25,c),
(174,619,l),
(177,637,o),
(176,650,o),
(155,650,cs),
(133,650,o),
(128,639,o),
(125,623,c),
(20,27,l),
(17,12,o),
(25,0,o),
(43,0,cs)
);
},
{
closed = 1;
nodes = (
(196,609,ls),
(216,609,o),
(222,618,o),
(222,630,cs),
(222,642,o),
(216,650,o),
(196,650,cs),
(107,650,ls),
(87,650,o),
(81,642,o),
(81,630,cs),
(81,618,o),
(87,609,o),
(107,609,cs)
);
},
{
closed = 1;
nodes = (
(88,0,ls),
(108,0,o),
(114,9,o),
(114,21,cs),
(114,33,o),
(108,41,o),
(88,41,cs),
(-1,41,ls),
(-21,41,o),
(-27,33,o),
(-27,21,cs),
(-27,9,o),
(-21,0,o),
(-1,0,cs)
);
}
);
width = 142;
}
);
unicode = 73;
},
{
glyphname = J;
lastChange = "2022-02-21 21:02:40 +0000";
layers = (
{
layerId = m01;
shapes = (
{
closed = 1;
nodes = (
(29,0,o),
(119,5,o),
(138,8,cs),
(179,14,o),
(219,20,o),
(250,57,cs),
(285,98,o),
(302,157,o),
(328,301,c),
(386,626,l),
(389,643,o),
(378,650,o),
(361,650,c),
(346,650,o),
(339,646,o),
(334,621,c),
(277,301,l),
(254,174,o),
(240,121,o),
(211,88,cs),
(194,69,o),
(166,59,o),
(142,56,cs),
(115,53,o),
(22,48,o),
(-2,48,cs),
(-14,48,o),
(-27,39,o),
(-27,25,cs),
(-27,10,o),
(-14,0,o),
(-2,0,cs)
);
},
{
closed = 1;
nodes = (
(492,600,ls),
(512,600,o),
(518,613,o),
(518,625,cs),
(518,637,o),
(512,650,o),
(492,650,cs),
(228,650,ls),
(208,650,o),
(202,637,o),
(202,625,cs),
(202,613,o),
(208,600,o),
(228,600,cs)
);
}
);
width = 600;
}
);
unicode = 74;
},
{
glyphname = K;
lastChange = "2022-02-21 20:35:30 +0000";
layers = (
{
layerId = m01;
shapes = (
{
closed = 1;
nodes = (
(414,609,ls),
(421,615,o),
(422,623,o),
(422,629,cs),
(422,635,o),
(419,641,o),
(413,645,cs),
(406,650,o),
(399,651,o),
(393,650,cs),
(386,648,o),
(380,642,o),
(374,637,cs),
(32,354,l),
(265,19,ls),
(272,9,o),
(282,-5,o),
(298,1,cs),
(314,7,o),
(323,20,o),
(313,34,cs),
(90,347,l)
);
},
{
closed = 1;
nodes = (
(20,5,o),
(23,20,o),
(25,30,c),
(129,624,l),
(132,642,o),
(131,655,o),
(110,655,cs),
(88,655,o),
(83,644,o),
(80,628,c),
(-25,32,l),
(-28,17,o),
(-20,5,o),
(-2,5,cs)
);
}
);
width = 344;
}
);
unicode = 75;
},
{
glyphname = L;
lastChange = "2022-02-21 20:36:32 +0000";
layers = (
{
layerId = m01;
shapes = (
{
closed = 1;
nodes = (
(19,0,o),
(22,15,o),
(24,25,c),
(128,619,l),
(131,637,o),
(130,650,o),
(109,650,cs),
(87,650,o),
(82,639,o),
(79,623,c),
(-26,27,l),
(-29,12,o),
(-21,0,o),
(-3,0,cs)
);
},
{
closed = 1;
nodes = (
(325,0,ls),
(345,0,o),
(351,14,o),
(351,26,cs),
(351,38,o),
(345,50,o),
(325,50,cs),
(-2,50,l),
(-2,0,l)
);
}
);
width = 378;
}
);
unicode = 76;
},
{
glyphname = M;
lastChange = "2022-02-21 18:26:40 +0000";
layers = (
{
layerId = m01;
shapes = (
{
closed = 1;
nodes = (
(2,0,o),
(8,1,o),
(12,4,cs),
(22,10,o),
(26,18,o),
(30,25,cs),
(339,619,l),
(344,628,o),
(342,637,o),
(336,643,cs),
(332,647,o),
(325,650,o),
(316,650,cs),
(298,650,o),
(293,639,o),
(286,625,cs),
(-23,32,ls),
(-28,23,o),
(-28,15,o),
(-25,10,cs),
(-21,3,o),
(-13,0,o),
(-6,0,cs)
);
},
{
closed = 1;
nodes = (
(759,0,o),
(765,11,o),
(764,26,cs),
(715,622,ls),
(714,638,o),
(707,649,o),
(685,649,cs),
(664,649,o),
(665,631,o),
(666,613,cs),
(714,24,ls),
(715,14,o),
(719,0,o),
(741,0,c)
);
},
{
closed = 1;
nodes = (
(292,622,l),
(341,24,ls),
(342,14,o),
(346,0,o),
(368,0,c),
(386,0,o),
(392,11,o),
(391,26,cs),
(342,631,l)
);
},
{
closed = 1;
nodes = (
(677,648,l),
(666,644,o),
(662,635,o),
(656,624,cs),
(347,31,l),
(382,3,l),
(392,9,o),
(396,17,o),
(400,24,cs),
(709,618,l)
);
}
);
width = 791;
}
);
unicode = 77;
},
{
glyphname = N;
lastChange = "2022-02-21 20:13:39 +0000";
layers = (
{
layerId = m01;
shapes = (
{
closed = 1;
nodes = (
(19,0,o),
(22,15,o),
(24,25,c),
(128,619,l),
(131,637,o),
(130,650,o),
(109,650,cs),
(87,650,o),
(82,639,o),
(79,623,c),
(-26,27,l),
(-29,12,o),
(-21,0,o),
(-3,0,cs)
);
},
{
closed = 1;
nodes = (
(423,0,o),
(426,15,o),
(428,25,c),
(532,619,l),
(535,637,o),
(534,650,o),
(513,650,cs),
(491,650,o),
(486,639,o),
(483,623,c),
(378,27,l),
(375,12,o),
(383,0,o),
(401,0,cs)
);
},
{
closed = 1;
nodes = (
(424,8,o),
(428,22,o),
(422,36,c),
(137,630,l),
(130,645,o),
(122,654,o),
(101,648,cs),
(81,643,o),
(83,630,o),
(91,613,c),
(374,21,l),
(378,11,o),
(385,-2,o),
(406,3,cs)
);
}
);
width = 454;
}
);
unicode = 78;
},
{
glyphname = O;
lastChange = "2022-02-21 21:40:30 +0000";
layers = (
{
layerId = m01;
shapes = (
{
closed = 1;
nodes = (
(305,-4,o),
(494,256,o),
(507,416,cs),
(513,481,o),
(504,536,o),
(479,576,cs),
(447,627,o),
(385,650,o),
(320,650,cs),
(254,650,o),
(184,626,o),
(140,584,cs),
(95,541,o),
(65,478,o),
(42,397,cs),
(34,369,o),
(25,322,o),
(20,270,cs),
(13,191,o),
(18,96,o),
(64,43,cs),
(79,25,o),
(109,-4,o),
(158,-4,cs)
);
},
{
closed = 1;
nodes = (
(126,47,o),
(112,66,o),
(98,83,cs),
(69,121,o),
(64,196,o),
(70,264,cs),
(74,310,o),
(84,355,o),
(92,388,cs),
(113,460,o),
(136,510,o),
(173,546,cs),
(209,581,o),
(257,600,o),
(328,600,cs),
(380,600,o),
(415,579,o),
(435,545,cs),
(455,513,o),
(462,467,o),
(457,415,cs),
(444,269,o),
(248,47,o),
(164,47,cs)
);
}
);
width = 466;
}
);
unicode = 79;
},
{
glyphname = P;
lastChange = "2022-02-21 20:49:31 +0000";
layers = (
{
layerId = m01;
shapes = (
{
closed = 1;
nodes = (
(113,600,l),
(297,600,o),
(372,558,o),
(372,488,cs),
(372,370,o),
(204,374,o),
(78,374,c),
(71,324,l),
(243,324,o),
(422,321,o),
(422,493,cs),
(422,597,o),
(311,650,o),
(113,650,c)
);
},
{
closed = 1;
nodes = (
(19,-4,o),
(22,15,o),
(24,25,c),
(128,619,l),
(131,637,o),
(130,650,o),
(109,650,cs),
(87,650,o),
(82,639,o),
(79,623,c),
(-26,27,l),
(-29,12,o),
(-21,-4,o),
(-3,-4,cs)
);
}
);
width = 369;
}
);
unicode = 80;
},
{
glyphname = Q;
lastChange = "2022-02-21 21:40:41 +0000";
layers = (
{
layerId = m01;
shapes = (
{
closed = 1;
nodes = (
(306,-4,o),
(494,256,o),
(507,416,cs),
(513,481,o),
(504,536,o),
(479,576,cs),
(447,627,o),
(385,650,o),
(320,650,cs),
(254,650,o),
(184,626,o),
(140,584,cs),
(95,541,o),
(65,478,o),
(42,397,cs),
(34,369,o),
(25,322,o),
(20,270,cs),
(13,191,o),
(18,96,o),
(64,43,cs),
(79,25,o),
(109,-4,o),
(158,-4,cs)
);
},
{
closed = 1;
nodes = (
(126,47,o),
(112,66,o),
(98,83,cs),
(69,121,o),
(64,196,o),
(70,264,cs),
(74,310,o),
(84,355,o),
(92,388,cs),
(113,460,o),
(136,510,o),
(173,546,cs),
(209,581,o),
(257,600,o),
(328,600,cs),
(380,600,o),
(415,579,o),
(435,545,cs),
(455,513,o),
(462,467,o),
(457,415,cs),
(444,265,o),
(259,47,o),
(164,47,cs)
);
},
{
closed = 1;
nodes = (
(239,163,o),
(226,171,o),
(212,160,cs),
(200,150,o),
(204,139,o),
(214,123,c),
(322,-35,ls),
(328,-43,o),
(336,-51,o),
(345,-54,cs),
(350,-55,o),
(355,-54,o),
(361,-51,cs),
(367,-48,o),
(371,-42,o),
(372,-36,cs),
(373,-30,o),
(372,-23,o),
(367,-16,cs),
(250,150,l)
);
}
);
width = 466;
}
);
unicode = 81;
},
{
glyphname = R;
lastChange = "2022-02-21 20:48:12 +0000";
layers = (
{
layerId = m01;
shapes = (
{
closed = 1;
nodes = (
(113,600,l),
(297,600,o),
(371,558,o),
(371,488,cs),
(371,370,o),
(204,374,o),
(78,374,c),
(71,324,l),
(243,324,o),
(421,321,o),
(421,493,cs),
(421,597,o),
(311,650,o),
(113,650,c)
);
},
{
closed = 1;
nodes = (
(19,-4,o),
(22,15,o),
(24,25,c),
(128,619,l),
(131,637,o),
(130,650,o),
(109,650,cs),
(87,650,o),
(82,639,o),
(79,623,c),
(-26,27,l),
(-29,12,o),
(-21,-4,o),
(-3,-4,cs)
);
},
{
closed = 1;
nodes = (
(56,353,l),
(289,18,ls),
(296,8,o),
(306,-6,o),
(322,0,cs),
(338,6,o),
(347,19,o),
(337,33,cs),
(114,346,l)
);
}
);
width = 369;
}
);
unicode = 82;
},
{
glyphname = S;
lastChange = "2022-02-21 20:53:50 +0000";
layers = (
{
layerId = m01;
shapes = (
{
closed = 1;
nodes = (
(118,0,ls),
(216,0,o),
(390,50,o),
(390,185,cs),
(390,269,o),
(321,318,o),
(238,375,cs),
(177,417,o),
(110,452,o),
(110,492,cs),
(110,555,o),
(218,600,o),
(295,600,cs),
(450,600,ls),
(463,600,o),
(473,613,o),
(473,626,cs),
(473,650,o),
(453,650,o),
(449,650,cs),
(296,650,ls),
(167,650,o),
(59,576,o),
(59,492,cs),
(59,422,o),
(139,383,o),
(206,336,cs),
(288,279,o),
(340,241,o),
(340,185,cs),
(340,83,o),
(183,50,o),
(118,50,cs),
(-2,50,ls),
(-15,50,o),
(-26,37,o),
(-26,24,cs),
(-26,0,o),
(-4,0,o),
(-2,0,cs)
);
}
);
width = 394;
}
);
unicode = 83;
},
{
glyphname = T;
lastChange = "2022-02-21 21:02:03 +0000";
layers = (
{
layerId = m01;
shapes = (
{
closed = 1;
nodes = (
(431,600,ls),
(451,600,o),
(457,613,o),
(457,625,cs),
(457,637,o),
(451,650,o),
(431,650,cs),
(107,650,ls),
(87,650,o),
(81,637,o),
(81,625,cs),
(81,613,o),
(87,600,o),
(107,600,cs)
);
},
{
closed = 1;
nodes = (
(183,0,o),
(186,15,o),
(188,25,c),
(292,619,l),
(295,637,o),
(294,650,o),
(273,650,cs),
(251,650,o),
(246,639,o),
(243,623,c),
(138,27,l),
(135,12,o),
(143,0,o),
(161,0,cs)
);
}
);
width = 377;
}
);
unicode = 84;
},
{
glyphname = U;
lastChange = "2022-02-21 21:07:42 +0000";
layers = (
{
layerId = m01;
shapes = (
{
closed = 1;
nodes = (
(442,520,l),
(440,509,l),
(418,415,o),
(368,331,o),
(339,283,cs),
(314,241,o),
(272,183,o),
(226,136,cs),
(180,87,o),
(129,49,o),
(91,49,cs),
(64,49,o),
(54,61,o),
(50,72,cs),
(43,90,o),
(46,137,o),
(52,175,c,{
name = "💚";
}),
(131,615,l,{
name = "💚";
}),
(134,632,o),
(129,650,o),
(109,650,cs,{
name = "❌";
}),
(93,650,o),
(84,636,o),
(82,625,c,{
name = "💚";
}),
(1,178,l,{
name = "💚";
}),
(-4,140,o),
(-7,90,o),
(1,60,cs),
(8,34,o),
(33,0,o),
(91,0,cs,{
name = "❌";
}),
(142,0,o),
(204,47,o),
(259,104,cs),
(310,156,o),
(355,216,o),
(382,257,cs),
(393,274,o),
(404,297,o),
(446,381,c),
(488,520,l)
);
},
{
closed = 1;
nodes = (
(400,0,o),
(406,13,o),
(408,22,c),
(514,624,l),
(517,639,o),
(510,650,o),
(490,650,cs),
(472,650,o),
(465,639,o),
(464,631,c),
(358,27,l),
(356,15,o),
(358,0,o),
(381,0,cs)
);
}
);
width = 435;
}
);
unicode = 85;
},
{
glyphname = V;
lastChange = "2022-02-21 18:29:21 +0000";
layers = (
{
layerId = m01;
shapes = (
{
closed = 1;
nodes = (
(470,650,o),
(464,649,o),
(460,646,cs),
(450,640,o),
(446,632,o),
(442,625,cs),
(133,31,ls),
(125,15,o),
(135,0,o),
(156,0,cs),
(178,0,o),
(179,11,o),
(186,25,cs),
(495,618,ls),
(500,627,o),
(500,635,o),
(497,640,cs),
(493,647,o),
(485,650,o),
(478,650,cs)
);
},
{
closed = 1;
nodes = (
(85,650,o),
(79,639,o),
(80,624,cs),
(129,28,l),
(130,18,o),
(133,11,o),
(141,5,c),
(178,37,l),
(130,626,ls),
(129,636,o),
(125,650,o),
(103,650,c)
);
}
);
width = 419;
}
);
unicode = 86;
},
{
glyphname = W;
lastChange = "2022-02-21 18:30:21 +0000";
layers = (
{
layerId = m01;
shapes = (
{
closed = 1;
nodes = (
(842,650,o),
(836,649,o),
(832,646,cs),
(822,640,o),
(818,632,o),
(814,625,cs),
(505,31,l),
(500,22,o),
(502,13,o),
(508,7,cs),
(512,3,o),
(519,0,o),
(528,0,cs),
(546,0,o),
(551,11,o),
(558,25,cs),
(867,618,ls),
(872,627,o),
(872,635,o),
(869,640,cs),
(865,647,o),
(857,650,o),
(850,650,cs)
);
},
{
closed = 1;
nodes = (
(85,650,o),
(79,639,o),
(80,624,cs),
(129,28,ls),
(130,12,o),
(137,1,o),
(159,1,cs),
(180,1,o),
(179,19,o),
(178,37,cs),
(130,626,ls),
(129,636,o),
(125,650,o),
(103,650,c)
);
},
{
closed = 1;
nodes = (
(552,28,l),
(503,626,ls),
(502,636,o),
(498,650,o),
(476,650,c),
(458,650,o),
(452,639,o),
(453,624,cs),
(502,19,l)
);
},
{
closed = 1;
nodes = (
(167,2,l),
(178,6,o),
(182,15,o),
(188,26,cs),
(497,619,l),
(462,647,l),
(452,641,o),
(448,633,o),
(444,626,cs),
(135,32,l)
);
}
);
width = 791;
}
);
unicode = 87;
},
{
glyphname = X;
lastChange = "2022-02-21 20:23:32 +0000";
layers = (
{
layerId = m01;
shapes = (
{
closed = 1;
nodes = (
(409,4,o),
(414,9,o),
(417,15,cs),
(419,21,o),
(419,27,o),
(416,34,c),
(131,630,l),
(127,638,o),
(122,645,o),
(115,648,cs),
(110,651,o),
(103,651,o),
(95,648,cs),
(87,645,o),
(82,640,o),
(81,634,cs),
(80,628,o),
(81,621,o),
(85,613,c),
(368,19,l),
(370,13,o),
(375,7,o),
(382,3,cs),
(387,0,o),
(394,-2,o),
(401,1,cs)
);
},
{
closed = 1;
nodes = (
(-8,-1,o),
(-1,-1,o),
(6,0,cs),
(12,3,o),
(18,7,o),
(22,11,c),
(517,609,l),
(523,616,o),
(525,623,o),
(525,629,cs),
(525,635,o),
(522,641,o),
(516,645,cs),
(509,650,o),
(502,651,o),
(496,650,cs),
(489,648,o),
(482,643,o),
(477,637,c),
(-21,38,l),
(-25,32,o),
(-27,26,o),
(-26,19,cs),
(-25,13,o),
(-21,7,o),
(-15,3,cs)
);
}
);
width = 446;
}
);
unicode = 88;
},
{
glyphname = Y;
lastChange = "2022-02-21 20:32:23 +0000";
layers = (
{
layerId = m01;
shapes = (
{
closed = 1;
nodes = (
(519,609,l),
(525,616,o),
(527,623,o),
(527,629,cs),
(527,635,o),
(524,641,o),
(518,645,cs),
(511,650,o),
(504,651,o),
(498,650,cs),
(491,648,o),
(484,643,o),
(479,637,c),
(225,333,l),
(255,291,l)
);
},
{
closed = 1;
nodes = (
(220,0,o),
(223,15,o),
(225,25,c),
(282,350,l),
(232,350,l),
(175,27,l),
(172,12,o),
(180,0,o),
(198,0,cs)
);
},
{
closed = 1;
nodes = (
(267,345,l),
(131,630,l),
(127,638,o),
(122,645,o),
(115,648,cs),
(110,651,o),
(103,651,o),
(95,648,cs),
(87,645,o),
(82,640,o),
(81,634,cs),
(80,628,o),
(81,621,o),
(85,613,c),
(231,307,l)
);
}
);
width = 447;
}
);
unicode = 89;
},
{
glyphname = Z;
lastChange = "2022-02-21 21:11:24 +0000";
layers = (
{
layerId = m01;
shapes = (
{
closed = 1;
nodes = (
(-8,-1,o),
(-1,0,o),
(6,0,cs),
(12,0,o),
(18,7,o),
(22,11,c),
(517,609,l),
(523,616,o),
(525,623,o),
(525,629,cs),
(525,635,o),
(522,641,o),
(516,645,cs),
(509,650,o),
(502,650,o),
(496,650,cs),
(489,650,o),
(482,643,o),
(477,637,c),
(-21,38,l),
(-25,32,o),
(-27,26,o),
(-26,19,cs),
(-25,13,o),
(-21,7,o),
(-15,3,cs)
);
},
{
closed = 1;
nodes = (
(500,600,l),
(500,650,l),
(106,650,ls),
(86,650,o),
(80,637,o),
(80,625,cs),
(80,613,o),
(86,600,o),
(106,600,cs)
);
},
{
closed = 1;
nodes = (
(392,0,ls),
(412,0,o),
(418,13,o),
(418,25,cs),
(418,37,o),
(412,50,o),
(392,50,cs),
(-1,50,l),
(-1,0,l)
);
}
);
width = 445;
}
);
unicode = 90;
},
{
glyphname = a;
lastChange = "2022-02-21 21:53:52 +0000";
layers = (
{
layerId = m01;
shapes = (
{
closed = 1;
nodes = (
(151,-4,o),
(203,50,o),
(240,97,cs),
(293,163,o),
(341,240,o),
(364,292,cs),
(368,301,l),
(323,301,l),
(295,254,o),
(262,205,o),
(207,136,cs),
(160,77,o),
(123,47,o),
(108,47,cs),
(90,47,o),
(90,62,o),
(90,78,cs),
(90,116,o),
(108,206,o),
(134,245,cs),
(164,290,o),
(215,300,o),
(249,300,cs),
(256,300,o),
(324,300,o),
(332,300,c),
(343,300,l),
(343,302,o),
(343,347,o),
(343,350,c),
(331,350,o),
(269,350,o),
(249,350,cs),
(192,350,o),
(133,333,o),
(95,276,cs),
(63,228,o),
(40,131,o),
(40,73,cs),
(40,22,o),
(60,-4,o),
(93,-4,cs)
);
},
{
closed = 1;
nodes = (
(329,0,o),
(331,18,o),
(332,23,cs),
(385,322,ls,{
name = "💚";
}),
(386,329,o),
(386,337,o),
(383,342,cs),
(380,347,o),
(376,350,o),
(369,350,c),
(323,350,l),
(323,261,l),
(281,23,ls),
(280,15,o),
(281,0,o),
(303,0,cs)
);
}
);
width = 414;
}
);
metricLeft = o;
metricRight = n;
unicode = 97;
},
{
glyphname = b;
lastChange = "2022-02-21 21:54:01 +0000";
layers = (
{
layerId = m01;
shapes = (
{
closed = 1;
nodes = (
(82,0,o),
(144,0,o),
(164,0,cs),
(221,0,o),
(280,17,o),
(318,74,cs),
(350,122,o),
(373,219,o),
(373,277,cs),
(373,328,o),
(353,354,o),
(320,354,cs),
(262,354,o),
(210,300,o),
(173,253,cs),
(120,187,o),
(72,110,o),
(49,58,cs),
(45,49,l),
(90,49,l),
(118,96,o),
(151,145,o),
(206,214,cs),
(253,273,o),
(290,303,o),
(305,303,cs),
(323,303,o),
(323,288,o),
(323,272,cs),
(323,234,o),
(305,144,o),
(279,105,cs),
(249,60,o),
(198,50,o),
(164,50,cs),
(157,50,o),
(89,50,o),
(81,50,c),
(70,50,l),
(70,48,o),
(70,3,o),
(70,0,c)
);
},
{
closed = 1;
nodes = (
(90,0,l),
(90,89,l),
(185,628,l),
(186,636,o),
(186,650,o),
(164,650,cs),
(138,650,o),
(136,633,o),
(135,628,c),
(28,22,l),
(26,10,o),
(32,0,o),
(44,0,c)
);
}
);
width = 412;
}
);
metricLeft = n;
metricRight = o;
unicode = 98;
},
{
glyphname = c;
lastChange = "2022-02-21 21:54:12 +0000";
layers = (
{
layerId = m01;
shapes = (
{
closed = 1;
nodes = (
(151,0,o),
(203,50,o),
(240,97,cs),
(250,109,o),
(259,121,o),
(268,134,c),
(271,138,o),
(274,145,o),
(274,152,cs),
(274,168,o),
(262,175,o),
(246,175,cs),
(239,175,o),
(231,167,o),
(228,163,cs),
(221,154,o),
(214,145,o),
(207,136,cs),
(160,77,o),
(123,51,o),
(108,51,cs),
(90,51,o),
(90,62,o),
(90,78,cs),
(90,116,o),
(108,206,o),
(134,245,cs),
(164,290,o),
(215,300,o),
(249,300,cs),
(256,300,o),
(265,300,o),
(284,300,c),
(297,300,o),
(306,314,o),
(306,326,cs),
(306,337,o),
(297,350,o),
(284,350,c),
(272,350,o),
(269,350,o),
(249,350,cs),
(192,350,o),
(133,333,o),
(95,276,cs),
(63,228,o),
(40,131,o),
(40,73,cs),
(40,22,o),
(60,0,o),
(93,0,cs)
);
}
);
width = 332;
}
);
metricLeft = o;
metricRight = o;
unicode = 99;
},
{
glyphname = d;
lastChange = "2022-02-21 22:15:49 +0000";
layers = (
{
layerId = m01;
shapes = (
{
closed = 1;
nodes = (
(151,-5,o),
(203,49,o),
(240,96,cs),
(293,162,o),
(341,239,o),
(364,291,cs),
(368,300,l),
(323,300,l),
(295,253,o),
(262,204,o),
(207,135,cs),
(160,76,o),
(123,46,o),
(108,46,cs),
(90,46,o),
(90,61,o),
(90,77,cs),
(90,115,o),
(108,205,o),
(134,244,cs),
(164,289,o),
(215,299,o),
(249,299,cs),
(256,299,o),
(324,299,o),
(332,299,c),
(343,299,l),
(343,301,o),
(343,346,o),
(343,349,c),
(331,349,o),
(269,349,o),
(249,349,cs),
(192,349,o),
(133,332,o),
(95,275,cs),
(63,227,o),
(40,130,o),
(40,72,cs),
(40,21,o),
(60,-5,o),
(93,-5,cs)
);
},
{
closed = 1;
nodes = (
(384,0,o),
(409,21,o),
(430,51,cs),
(447,75,ls),
(450,79,o),
(453,86,o),
(453,93,cs),
(453,109,o),
(441,116,o),
(425,116,cs),
(418,116,o),
(410,108,o),
(407,104,cs),
(392,81,ls),
(378,59,o),
(370,48,o),
(361,48,cs),
(343,48,o),
(346,66,o),
(346,82,cs),
(346,93,o),
(351,124,o),
(352,132,cs),
(439,623,ls),
(441,634,o),
(444,650,o),
(421,650,cs),
(402,650,o),
(391,642,o),
(388,623,cs),
(303,146,ls),
(299,122,o),
(296,95,o),
(296,77,cs),
(296,26,o),
(313,0,o),
(346,0,cs)
);
}
);
width = 483;
}
);
metricLeft = o;
unicode = 100;
},
{
glyphname = e;
lastChange = "2022-02-21 21:54:49 +0000";
layers = (
{
layerId = m01;
shapes = (
{
closed = 1;
nodes = (
(128,0,o),
(157,14,o),
(186,39,cs),
(207,57,o),
(228,81,o),
(248,109,cs),
(257,122,o),
(253,135,o),
(244,141,cs),
(233,147,o),
(218,147,o),
(208,132,cs),
(189,105,o),
(171,86,o),
(157,74,cs),
(135,54,o),
(120,48,o),
(108,48,cs),
(99,48,o),
(94,54,o),
(91,64,cs),
(87,78,o),
(89,98,o),
(92,116,cs),
(94,132,o),
(98,146,o),
(101,153,c),
(153,163,o),
(192,183,o),
(221,205,cs),
(256,232,o),
(276,265,o),
(282,291,cs),
(288,313,o),
(285,330,o),
(274,340,cs),
(266,348,o),
(252,350,o),
(237,350,cs),
(217,350,o),
(194,344,o),
(179,336,cs),
(160,326,o),
(139,308,o),
(113,276,cs),
(103,264,o),
(94,250,o),
(85,235,cs),
(73,213,o),
(62,188,o),
(54,164,cs),
(50,148,o),
(45,133,o),
(43,119,cs),
(38,91,o),
(38,68,o),
(41,50,cs),
(47,17,o),
(67,0,o),
(99,0,cs)
);
},
{
closed = 1;
nodes = (
(126,215,ls),
(130,225,o),
(137,239,o),
(148,254,cs),
(158,268,o),
(173,284,o),
(197,299,cs),
(205,303,o),
(214,307,o),
(222,307,cs),
(228,307,o),
(233,304,o),
(236,299,cs),
(238,294,o),
(237,287,o),
(232,277,cs),
(226,266,o),
(215,252,o),
(196,239,cs),
(179,227,o),
(157,216,o),
(124,209,c)
);
}
);
width = 314;
}
);
metricLeft = o;
metricRight = o;
unicode = 101;
},
{
glyphname = f;
lastChange = "2022-02-21 22:21:01 +0000";
layers = (
{
layerId = m01;
shapes = (
{
closed = 1;
nodes = (
(143,0,o),
(151,14,o),
(153,26,cs),
(238,518,l),
(245,558,o),
(274,600,o),
(307,600,c),
(401,600,l),
(418,600,o),
(426,614,o),
(426,625,cs),
(426,635,o),
(418,650,o),
(401,650,c),
(307,650,l),
(257,650,o),
(206,616,o),
(189,527,c),
(101,28,ls),
(99,16,o),
(108,0,o),
(126,0,cs)
);
},
{
closed = 1;
nodes = (
(278,309,ls),
(298,309,o),
(304,318,o),
(304,330,cs),
(304,342,o),
(298,350,o),
(278,350,cs),
(84,350,ls),
(64,350,o),
(58,342,o),
(58,330,cs),
(58,318,o),
(64,309,o),
(84,309,cs)
);
}
);
width = 312;
}
);
metricLeft = t;
unicode = 102;
},
{
glyphname = g;
lastChange = "2022-02-21 21:55:11 +0000";
layers = (
{
layerId = m01;
shapes = (
{
closed = 1;
nodes = (
(30,-300,o),
(119,-295,o),
(138,-292,cs),
(179,-286,o),
(219,-280,o),
(250,-243,cs),
(285,-202,o),
(302,-143,o),
(328,1,c),
(386,326,l),
(389,343,o),
(378,350,o),
(361,350,c),
(336,350,l),
(312,198,l),
(277,1,l),
(254,-126,o),
(240,-179,o),
(211,-212,cs),
(194,-231,o),
(166,-241,o),
(142,-244,cs),
(115,-247,o),
(23,-252,o),
(-1,-252,cs),
(-13,-252,o),
(-26,-261,o),
(-26,-275,cs),
(-26,-290,o),
(-13,-300,o),
(-1,-300,cs)
);
},
{
closed = 1;
nodes = (
(151,-4,o),
(203,50,o),
(240,97,cs),
(293,163,o),
(341,240,o),
(364,292,cs),
(368,301,l),
(323,301,l),
(295,254,o),
(262,205,o),
(207,136,cs),
(160,77,o),
(123,47,o),
(108,47,cs),
(90,47,o),
(90,62,o),
(90,78,cs),
(90,116,o),
(108,206,o),
(134,245,cs),
(164,290,o),
(215,300,o),
(249,300,cs),
(256,300,o),
(324,300,o),
(332,300,c),
(343,300,l),
(343,302,o),
(343,347,o),
(343,350,c),
(331,350,o),
(269,350,o),
(249,350,cs),
(192,350,o),
(133,333,o),
(95,276,cs),
(63,228,o),
(40,131,o),
(40,73,cs),
(40,22,o),
(60,-4,o),
(93,-4,cs)
);
}
);
width = 414;
}
);
metricLeft = o;
metricRight = n;
unicode = 103;
},
{
glyphname = h;
lastChange = "2022-02-21 21:55:23 +0000";
layers = (
{
layerId = m01;
shapes = (
{
closed = 1;
nodes = (
(331,0,o),
(333,18,o),
(334,23,cs),
(373,234,ls),
(384,291,o),
(376,354,o),
(321,354,cs),
(229,354,o),
(139,203,o),
(81,116,c),
(74,11,l),
(143,126,o),
(257,305,o),
(312,305,cs),
(333,305,o),
(327,261,o),
(322,234,cs),
(283,23,ls),
(282,15,o),
(283,0,o),
(305,0,c)
);
},
{
closed = 1;
nodes = (
(76,0,o),
(78,18,o),
(79,23,cs),
(185,623,ls),
(186,630,o),
(186,638,o),
(184,642,cs),
(181,647,o),
(175,650,o),
(167,650,c),
(157,650,o),
(150,648,o),
(145,644,cs),
(140,640,o),
(136,633,o),
(134,623,cs),
(28,23,ls),
(27,15,o),
(28,0,o),
(50,0,cs)
);
}
);
width = 418;
}
);
metricLeft = n;
metricRight = n;
unicode = 104;
},
{
glyphname = i;
lastChange = "2022-02-21 21:57:19 +0000";
layers = (
{
layerId = m01;
shapes = (
{
closed = 1;
nodes = (
(77,0,o),
(79,18,o,{
name = "🔷";
}),
(80,23,c),
(133,323,l),
(135,340,o),
(132,350,o),
(115,350,c),
(95,350,o),
(86,341,o),
(82,323,c),
(29,23,l),
(28,15,o),
(29,0,o),
(51,0,cs)
);
},
{
closed = 1;
nodes = (
(149,441,o),
(162,453,o),
(162,467,cs),
(162,482,o),
(149,494,o),
(134,494,cs),
(119,494,o),
(107,481,o),
(107,467,cs),
(107,454,o),
(119,441,o),
(134,441,cs)
);
}
);
width = 163;
}
);
metricLeft = n;
metricRight = "=n-3";
unicode = 105;
},
{
glyphname = j;
lastChange = "2022-02-21 21:56:22 +0000";
layers = (
{
layerId = m01;
shapes = (
{
closed = 1;
nodes = (
(-221,-300,o),
(-131,-295,o),
(-112,-292,cs),
(-71,-286,o),
(-31,-280,o),
(0,-243,cs),
(35,-202,o),
(52,-143,o),
(78,1,c),
(136,326,l),
(139,343,o),
(128,350,o),
(111,350,c),
(96,350,o),
(89,346,o),
(84,321,c),
(27,1,l),
(4,-126,o),
(-10,-179,o),
(-39,-212,cs),
(-56,-231,o),
(-84,-241,o),
(-108,-244,cs),
(-135,-247,o),
(-228,-252,o),
(-252,-252,cs),
(-264,-252,o),
(-277,-261,o),
(-277,-275,cs),
(-277,-290,o),
(-264,-300,o),
(-252,-300,cs)
);
},
{
closed = 1;
nodes = (
(150,440,o),
(163,452,o),
(163,467,cs),
(163,483,o),
(150,495,o),
(135,495,cs),
(120,495,o),
(108,483,o),
(108,467,cs),
(108,452,o),
(120,440,o),
(135,440,cs)
);
}
);
width = 167;
}
);
metricRight = n;
unicode = 106;
},
{
glyphname = k;
lastChange = "2022-02-21 21:57:35 +0000";
layers = (
{
layerId = m01;
shapes = (
{
closed = 1;
nodes = (
(65,0,o),
(76,7,o),
(80,26,c),
(83,44,l),
(99,90,o),
(121,158,o),
(156,206,cs),
(176,234,o),
(198,257,o),
(218,273,cs),
(236,288,o),
(263,306,o),
(278,304,cs),
(286,303,o),
(289,296,o),
(290,288,cs),
(291,281,o),
(290,275,o),
(289,270,cs),
(284,247,o),
(261,233,o),
(238,217,cs),
(215,202,o),
(191,188,o),
(181,183,cs),
(162,173,l),
(317,10,l),
(322,5,o),
(330,0,o),
(338,0,cs),
(344,0,o),
(351,2,o),
(356,6,cs),
(361,10,o),
(364,16,o),
(364,22,cs),
(364,29,o),
(360,37,o),
(354,44,cs),
(337,63,o),
(246,156,o),
(241,161,c),
(255,168,o),
(272,179,o),
(287,192,cs),
(309,210,o),
(326,226,o),
(333,245,cs),
(341,268,o),
(340,291,o),
(336,310,cs),
(330,337,o),
(313,350,o),
(292,350,cs),
(257,350,o),
(224,333,o),
(194,310,cs),
(162,285,o),
(134,253,o),
(117,228,c),
(185,621,ls),
(189,642,o),
(177,650,o),
(161,650,cs),
(146,650,o),
(137,639,o),
(134,622,cs),
(29,26,l),
(26,10,o),
(36,0,o),
(49,0,cs)
);
}
);
width = 391;
}
);
metricLeft = n;
unicode = 107;
},
{
glyphname = l;
lastChange = "2022-02-21 21:57:51 +0000";
layers = (
{
layerId = m01;
shapes = (
{
closed = 1;
nodes = (
(70,0,o),
(76,10,o),
(78,22,c),
(185,629,l),
(186,636,o),
(181,650,o),
(159,650,cs),
(146,650,o),
(137,640,o),
(135,629,c),
(28,22,l),
(26,10,o),
(35,0,o),
(53,0,cs)
);
}
);
width = 160;
}
);
metricLeft = n;
metricRight = n;
unicode = 108;
},
{
glyphname = m;
lastChange = "2022-02-21 21:57:59 +0000";
layers = (
{
layerId = m01;
shapes = (
{
closed = 1;
nodes = (
(316,-1,o),
(318,17,o),
(319,22,cs),
(358,233,ls),
(369,290,o),
(361,353,o),
(306,353,cs),
(214,353,o),
(139,202,o),
(81,115,c),
(74,10,l),
(143,125,o),
(242,304,o),
(297,304,cs),
(318,304,o),
(312,260,o),
(307,233,cs),
(268,22,ls),
(267,14,o),
(268,-1,o),
(290,-1,c)
);
},
{
closed = 1;
nodes = (
(76,0,o),
(78,18,o),
(79,23,cs),
(132,323,ls),
(133,330,o),
(133,338,o),
(131,342,cs),
(128,347,o),
(122,350,o),
(114,350,c),
(104,350,o),
(97,348,o),
(92,344,cs),
(87,340,o),
(83,333,o),
(81,323,cs),
(28,23,ls),
(27,15,o),
(28,0,o),
(50,0,cs)
);
},
{
closed = 1;
nodes = (
(557,0,o),
(559,18,o),
(560,23,cs),
(599,234,ls),
(610,291,o),
(602,354,o),
(547,354,cs),
(455,354,o),
(380,203,o),
(322,116,c),
(315,11,l),
(384,126,o),
(483,305,o),
(538,305,cs),
(559,305,o),
(553,261,o),
(548,234,cs),
(509,23,ls),
(508,15,o),
(509,0,o),
(531,0,c)
);
}
);
width = 644;
}
);
metricLeft = n;
metricRight = n;
unicode = 109;
},
{
glyphname = n;
lastChange = "2022-02-21 21:50:05 +0000";
layers = (
{
layerId = m01;
shapes = (
{
closed = 1;
nodes = (
(331,0,o),
(333,18,o),
(334,23,cs),
(373,234,ls),
(384,291,o),
(376,354,o),
(321,354,cs),
(229,354,o),
(139,203,o),
(81,116,c),
(74,11,l),
(143,126,o),
(257,305,o),
(312,305,cs),
(333,305,o),
(327,261,o),
(322,234,cs),
(283,23,ls),
(282,15,o),
(283,0,o),
(305,0,c)
);
},
{
closed = 1;
nodes = (
(76,0,o),
(78,18,o),
(79,23,cs),
(132,323,ls),
(133,330,o),
(133,338,o),
(131,342,cs),
(128,347,o),
(122,350,o),
(114,350,c),
(104,350,o),
(97,348,o),
(92,344,cs),
(87,340,o),
(83,333,o),
(81,323,cs),
(28,23,ls),
(27,15,o),
(28,0,o),
(50,0,cs)
);
}
);
width = 418;
}
);
unicode = 110;
},
{
glyphname = o;
lastChange = "2022-02-21 21:52:49 +0000";
layers = (
{
layerId = m01;
shapes = (
{
closed = 1;
nodes = (
(212,-2,o),
(318,158,o),
(318,247,cs),
(318,319,o),
(283,351,o),
(211,351,cs),
(185,351,o),
(170,346,o),
(145,333,cs),
(125,321,o),
(106,298,o),
(90,269,cs),
(82,254,o),
(70,227,o),
(60,196,cs),
(51,167,o),
(44,135,o),
(44,105,cs),
(44,20,o),
(69,-2,o),
(115,-2,cs)
);
},
{
closed = 1;
nodes = (
(94,48,o),
(94,77,o),
(94,105,cs),
(94,126,o),
(100,157,o),
(109,186,cs),
(116,212,o),
(129,235,o),
(137,251,cs),
(150,273,o),
(159,284,o),
(174,292,cs),
(189,299,o),
(196,301,o),
(210,301,cs),
(250,301,o),
(268,287,o),
(268,247,cs),
(268,182,o),
(178,48,o),
(121,48,cs)
);
}
);
width = 359;
}
);
unicode = 111;
},
{
glyphname = p;
lastChange = "2022-02-21 21:58:07 +0000";
layers = (
{
layerId = m01;
shapes = (
{
closed = 1;
nodes = (
(83,0,o),
(145,0,o),
(165,0,cs),
(222,0,o),
(281,17,o),
(319,74,cs),
(351,122,o),
(374,219,o),
(374,277,cs),
(374,328,o),
(354,354,o),
(321,354,cs),
(263,354,o),
(211,300,o),
(174,253,cs),
(121,187,o),
(73,110,o),
(50,58,cs),
(46,49,l),
(91,49,l),
(119,96,o),
(152,145,o),
(207,214,cs),
(254,273,o),
(291,303,o),
(306,303,cs),
(324,303,o),
(324,288,o),
(324,272,cs),
(324,234,o),
(306,144,o),
(280,105,cs),
(250,60,o),
(199,50,o),
(165,50,cs),
(158,50,o),
(90,50,o),
(82,50,c),
(71,50,l),
(71,48,o),
(71,3,o),
(71,0,c)
);
},
{
closed = 1;
nodes = (
(23,-300,o),
(25,-282,o),
(26,-277,cs),
(133,327,ls),
(134,335,o),
(133,350,o),
(111,350,cs),
(85,350,o),
(83,332,o),
(82,327,cs),
(-25,-277,ls),
(-26,-285,o),
(-25,-300,o),
(-3,-300,cs)
);
}
);
width = 413;
}
);
metricLeft = n;
metricRight = o;
unicode = 112;
},
{
glyphname = q;
lastChange = "2022-02-21 21:58:55 +0000";
layers = (
{
layerId = m01;
shapes = (
{
closed = 1;
nodes = (
(151,-4,o),
(203,50,o),
(240,97,cs),
(293,163,o),
(341,240,o),
(364,292,cs),
(368,301,l),
(323,301,l),
(295,254,o),
(262,205,o),
(207,136,cs),
(160,77,o),
(123,47,o),
(108,47,cs),
(90,47,o),
(90,62,o),
(90,78,cs),
(90,116,o),
(108,206,o),
(134,245,cs),
(164,290,o),
(215,300,o),
(249,300,cs),
(256,300,o),
(324,300,o),
(332,300,c),
(343,300,l),
(343,302,o),
(343,347,o),
(343,350,c),
(331,350,o),
(269,350,o),
(249,350,cs),
(192,350,o),
(133,333,o),
(95,276,cs),
(63,228,o),
(40,131,o),
(40,73,cs),
(40,22,o),
(60,-4,o),
(93,-4,cs)
);
},
{
closed = 1;
nodes = (
(254,-301,o),
(270,-298,o),
(275,-289,cs),
(305,-235,o),
(344,-185,o),
(382,-147,cs),
(386,-143,o),
(389,-136,o),
(388,-128,cs),
(386,-116,o),
(380,-107,o),
(369,-104,cs),
(363,-102,o),
(354,-104,o),
(350,-108,cs),
(321,-137,o),
(307,-154,o),
(299,-164,c),
(386,327,ls),
(387,335,o),
(386,350,o),
(364,350,cs),
(339,350,l),
(228,-273,ls),
(225,-287,o),
(235,-299,o),
(246,-300,cs)
);
}
);
width = 415;
}
);
metricLeft = o;
unicode = 113;
},
{
glyphname = r;
lastChange = "2022-02-22 07:31:13 +0000";
layers = (
{
layerId = m01;
shapes = (
{
closed = 1;
nodes = (
(131,163,o),
(153,194,o),
(190,238,cs),
(200,249,o),
(224,275,o),
(247,290,cs),
(258,298,o),
(269,302,o),
(276,302,cs),
(283,302,o),
(286,296,o),
(291,269,cs),
(294,252,o),
(301,241,o),
(321,241,cs),
(340,241,o),
(343,256,o),
(341,269,cs,{
name = "💚";
}),
(335,314,o),
(329,329,o),
(317,338,cs),
(308,345,o),
(297,350,o),
(284,350,cs),
(263,350,o),
(243,348,o),
(224,336,cs),
(204,323,o),
(178,300,o),
(154,275,cs),
(135,254,o),
(117,233,o),
(108,216,c),
(86,91,l)
);
},
{
closed = 1;
nodes = (
(76,0,o),
(78,18,o),
(79,23,cs),
(132,323,ls),
(133,330,o),
(135,350,o),
(114,350,c),
(87,350,o),
(83,333,o),
(81,323,cs),
(28,23,ls),
(27,15,o),
(28,0,o),
(50,0,cs)
);
}
);
width = 382;
}
);
metricLeft = n;
metricRight = n;
unicode = 114;
},
{
glyphname = s;
lastChange = "2022-02-21 22:18:31 +0000";
layers = (
{
layerId = m01;
shapes = (
{
closed = 1;
nodes = (
(109,0,o),
(135,3,o),
(158,12,cs),
(187,24,o),
(208,46,o),
(213,82,cs),
(219,117,o),
(204,143,o),
(176,168,cs),
(168,175,o),
(127,200,o),
(97,224,cs),
(80,238,o),
(66,251,o),
(66,260,cs),
(66,269,o),
(72,278,o),
(82,285,cs),
(94,294,o),
(113,300,o),
(133,300,cs),
(228,300,ls),
(241,300,o),
(256,308,o),
(256,325,cs),
(256,349,o),
(241,350,o),
(213,350,c),
(133,350,ls),
(102,350,o),
(73,341,o),
(51,325,cs),
(30,309,o),
(17,287,o),
(16,260,cs),
(15,224,o),
(41,202,o),
(69,182,cs),
(96,163,o),
(129,143,o),
(139,135,cs),
(156,121,o),
(166,107,o),
(164,90,cs),
(161,73,o),
(151,63,o),
(137,57,cs),
(122,51,o),
(101,50,o),
(81,50,c),
(6,50,l),
(-10,50,o),
(-25,45,o),
(-25,25,cs),
(-25,6,o),
(-10,0,o),
(5,0,c),
(81,0,l)
);
}
);
width = 282;
}
);
metricRight = o;
unicode = 115;
},
{
glyphname = t;
lastChange = "2022-02-21 22:28:51 +0000";
layers = (
{
layerId = m01;
shapes = (
{
closed = 1;
nodes = (
(153,0,o),
(161,11,o),
(163,23,c),
(254,546,l),
(255,553,o),
(250,568,o),
(228,568,cs),
(215,568,o),
(206,558,o),
(204,547,c),
(111,24,l),
(109,12,o),
(118,0,o),
(136,0,cs)
);
},
{
closed = 1;
nodes = (
(308,309,ls),
(328,309,o),
(334,318,o),
(334,330,cs),
(334,342,o),
(328,350,o),
(308,350,cs),
(84,350,ls),
(64,350,o),
(58,342,o),
(58,330,cs),
(58,318,o),
(64,309,o),
(84,309,cs)
);
}
);
width = 307;
}
);
unicode = 116;
},
{
glyphname = u;
lastChange = "2022-02-21 22:04:53 +0000";
layers = (
{
layerId = m01;
shapes = (
{
closed = 1;
nodes = (
(85,350,o),
(83,332,o),
(82,327,cs),
(45,116,ls),
(35,59,o),
(42,-4,o),
(97,-4,cs),
(189,-4,o),
(279,147,o),
(337,234,c),
(344,339,l),
(275,224,o),
(161,45,o),
(106,45,cs),
(85,45,o),
(91,89,o),
(96,116,cs),
(133,327,ls),
(134,335,o),
(133,350,o),
(111,350,c)
);
},
{
closed = 1;
nodes = (
(332,0,o),
(334,18,o),
(335,23,cs),
(388,323,ls),
(389,330,o),
(389,338,o),
(387,342,cs),
(384,347,o),
(378,350,o),
(370,350,c),
(360,350,o),
(353,348,o),
(348,344,cs),
(343,340,o),
(339,333,o),
(337,323,cs),
(284,23,ls),
(283,15,o),
(284,0,o),
(306,0,cs)
);
}
);
width = 417;
}
);
metricLeft = n;
metricRight = n;
unicode = 117;
},
{
glyphname = v;
lastChange = "2022-02-21 22:06:01 +0000";
layers = (
{
layerId = m01;
shapes = (
{
closed = 1;
nodes = (
(114,-4,o),
(140,7,o),
(165,25,cs),
(203,53,o),
(243,100,o),
(278,150,cs),
(311,198,o),
(339,247,o),
(356,284,c),
(372,274,o),
(405,259,o),
(420,259,cs),
(429,259,o),
(436,263,o),
(440,270,cs),
(444,277,o),
(445,286,o),
(440,295,cs),
(437,302,o),
(427,307,o),
(417,312,cs),
(404,319,o),
(379,331,o),
(370,342,cs),
(363,350,o),
(358,350,o),
(351,350,cs),
(341,350,o),
(330,343,o),
(326,334,cs,{
name = "💚";
}),
(304,290,o),
(272,233,o),
(237,181,cs),
(205,133,o),
(170,89,o),
(136,63,cs),
(122,52,o),
(111,47,o),
(105,47,cs),
(94,47,o),
(89,52,o),
(88,59,cs),
(86,70,o),
(90,86,o),
(93,102,cs),
(132,323,ls),
(133,330,o),
(133,338,o),
(131,342,cs),
(128,347,o),
(122,350,o),
(114,350,cs),
(104,350,o),
(97,348,o),
(92,344,cs),
(87,340,o),
(83,333,o),
(81,323,cs),
(42,102,ls),
(37,76,o),
(36,49,o),
(43,28,cs),
(50,9,o),
(64,-4,o),
(90,-4,cs)
);
}
);
width = 425;
}
);
metricLeft = n;
unicode = 118;
},
{
glyphname = w;
lastChange = "2022-02-21 22:06:22 +0000";
layers = (
{
layerId = m01;
shapes = (
{
closed = 1;
nodes = (
(114,-4,o),
(140,7,o),
(165,25,cs),
(203,53,o),
(243,100,o),
(278,150,cs),
(311,198,o),
(339,247,o),
(356,284,c),
(326,334,l,{
name = "💚";
}),
(304,290,o),
(272,233,o),
(237,181,cs),
(205,133,o),
(170,89,o),
(136,63,cs),
(122,52,o),
(111,47,o),
(105,47,cs),
(94,47,o),
(89,52,o),
(88,59,cs),
(86,70,o),
(90,87,o),
(93,103,cs),
(132,323,ls),
(133,330,o),
(133,338,o),
(131,342,cs),
(128,347,o),
(122,350,o),
(114,350,cs),
(104,350,o),
(97,348,o),
(92,344,cs),
(87,340,o),
(83,333,o),
(81,323,cs),
(42,103,ls),
(37,77,o),
(36,49,o),
(43,28,cs),
(50,9,o),
(64,-4,o),
(90,-4,cs)
);
},
{
closed = 1;
nodes = (
(546,290,o),
(514,233,o),
(479,181,cs),
(447,133,o),
(412,89,o),
(378,63,cs),
(364,52,o),
(353,47,o),
(347,47,cs),
(336,47,o),
(331,52,o),
(330,59,cs),
(328,70,o),
(332,87,o),
(335,103,cs),
(374,323,ls),
(375,330,o),
(375,338,o),
(373,342,cs),
(370,347,o),
(364,350,o),
(356,350,cs),
(346,350,o),
(339,348,o),
(334,344,cs),
(329,340,o),
(325,333,o),
(323,323,cs),
(284,103,ls),
(279,77,o),
(278,49,o),
(285,28,cs),
(292,9,o),
(306,-4,o),
(332,-4,cs),
(356,-4,o),
(382,7,o),
(407,25,cs),
(445,53,o),
(485,100,o),
(520,150,cs),
(553,198,o),
(581,247,o),
(598,284,c),
(614,274,o),
(647,259,o),
(662,259,cs),
(671,259,o),
(678,263,o),
(682,270,cs),
(686,277,o),
(687,286,o),
(682,295,cs),
(679,302,o),
(669,307,o),
(659,312,cs),
(646,319,o),
(621,331,o),
(612,342,cs),
(605,350,o),
(600,350,o),
(593,350,cs),
(583,350,o),
(572,343,o),
(568,334,cs,{
name = "💚";
})
);
}
);
width = 667;
}
);
metricLeft = n;
unicode = 119;
},
{
glyphname = x;
lastChange = "2022-02-21 22:06:37 +0000";
layers = (
{
layerId = m01;
shapes = (
{
closed = 1;
nodes = (
(61,0,o),
(69,5,o),
(74,10,c),
(380,308,l),
(385,313,o),
(389,317,o),
(389,327,cs),
(389,333,o),
(387,339,o),
(382,344,cs),
(377,349,o),
(370,350,o),
(363,350,cs),
(356,349,o),
(349,346,o),
(344,341,c),
(37,44,l),
(30,36,o),
(28,28,o),
(29,21,cs),
(30,16,o),
(33,11,o),
(37,6,cs),
(41,2,o),
(46,0,o),
(53,0,cs)
);
},
{
closed = 1;
nodes = (
(314,-1,o),
(322,3,o),
(327,8,cs),
(332,13,o),
(336,20,o),
(336,27,cs),
(336,33,o),
(334,39,o),
(330,44,c),
(128,338,l),
(123,345,o),
(117,350,o),
(109,350,cs),
(102,350,o),
(96,347,o),
(91,343,cs),
(86,339,o),
(83,333,o),
(82,327,cs),
(82,321,o),
(85,314,o),
(88,309,c),
(292,10,l),
(296,4,o),
(302,1,o),
(307,0,cs)
);
}
);
width = 418;
}
);
metricLeft = n;
metricRight = n;
unicode = 120;
},
{
glyphname = y;
lastChange = "2022-02-21 22:06:47 +0000";
layers = (
{
layerId = m01;
shapes = (
{
closed = 1;
nodes = (
(85,350,o),
(83,333,o),
(82,328,cs),
(45,118,ls),
(35,61,o),
(42,-4,o),
(97,-4,cs),
(189,-4,o),
(279,147,o),
(337,234,c),
(341,339,l),
(272,224,o),
(161,45,o),
(106,45,cs),
(85,45,o),
(91,91,o),
(96,118,cs),
(133,328,ls),
(134,336,o),
(133,350,o),
(111,350,c)
);
},
{
closed = 1;
nodes = (
(32,-300,o),
(120,-295,o),
(139,-292,cs),
(180,-286,o),
(220,-280,o),
(251,-243,cs),
(286,-202,o),
(303,-144,o),
(329,0,c),
(387,328,l),
(389,340,o),
(379,350,o),
(362,350,c),
(347,350,o),
(339,343,o),
(335,323,c),
(278,0,l),
(255,-127,o),
(241,-179,o),
(212,-212,cs),
(195,-231,o),
(167,-241,o),
(143,-244,cs),
(116,-247,o),
(25,-252,o),
(1,-252,cs),
(-11,-252,o),
(-24,-261,o),
(-24,-275,cs),
(-24,-290,o),
(-11,-300,o),
(1,-300,cs)
);
}
);
width = 415;
}
);
metricLeft = n;
metricRight = n;
unicode = 121;
},
{
glyphname = z;
lastChange = "2022-02-21 22:06:52 +0000";
layers = (
{
layerId = m01;
shapes = (
{
closed = 1;
nodes = (
(61,0,o),
(69,5,o),
(74,10,c),
(380,308,l),
(385,313,o),
(389,317,o),
(389,327,cs),
(389,333,o),
(387,339,o),
(382,344,cs),
(377,349,o),
(370,350,o),
(363,350,cs),
(356,349,o),
(349,346,o),
(344,341,c),
(37,44,l),
(30,36,o),
(28,28,o),
(29,21,cs),
(30,16,o),
(33,11,o),
(37,6,cs),
(41,2,o),
(46,0,o),
(53,0,cs)
);
},
{
closed = 1;
nodes = (
(358,300,ls),
(378,300,o),
(384,313,o),
(384,325,cs),
(384,337,o),
(378,350,o),
(358,350,cs),
(108,350,ls),
(88,350,o),
(82,337,o),
(82,325,cs),
(82,313,o),
(88,300,o),
(108,300,cs)
);
},
{
closed = 1;
nodes = (
(310,0,ls),
(330,0,o),
(336,13,o),
(336,25,cs),
(336,37,o),
(330,50,o),
(310,50,cs),
(59,50,ls),
(39,50,o),
(33,37,o),
(33,25,cs),
(33,13,o),
(39,0,o),
(59,0,cs)
);
}
);
width = 418;
}
);
metricLeft = n;
metricRight = n;
unicode = 122;
},
{
glyphname = zero;
lastChange = "2022-02-21 21:24:35 +0000";
layers = (
{
layerId = m01;
shapes = (
{
closed = 1;
nodes = (
(229,1,o),
(404,212,o),
(404,394,cs),
(404,482,o),
(373,568,o),
(266,568,cs),
(78,568,o),
(3,282,o),
(3,156,cs),
(3,60,o),
(54,1,o),
(128,1,cs,{
name = "❌";
})
);
},
{
closed = 1;
nodes = (
(81,51,o),
(55,84,o),
(55,156,cs),
(55,279,o),
(134,517,o),
(266,517,cs),
(336,517,o),
(352,463,o),
(352,394,cs),
(352,212,o),
(177,51,o),
(128,51,cs)
);
}
);
width = 370;
}
);
unicode = 48;
},
{
glyphname = one;
lastChange = "2022-02-21 21:32:58 +0000";
layers = (
{
layerId = m01;
shapes = (
{
closed = 1;
nodes = (
(16,0,o),
(21,10,o),
(23,22,c),
(116,549,l),
(117,556,o),
(111,568,o),
(91,568,cs),
(80,568,o),
(68,560,o),
(66,549,c),
(-27,22,l),
(-29,10,o),
(-19,0,o),
(-1,0,cs)
);
}
);
width = 50;
}
);
unicode = 49;
},
{
glyphname = two;
lastChange = "2022-02-22 06:32:38 +0000";
layers = (
{
layerId = m01;
shapes = (
{
closed = 1;
nodes = (
(61,49,l),
(104,83,o),
(315,244,o),
(361,321,cs),
(411,404,o),
(408,511,o),
(329,559,cs),
(264,599,o),
(129,544,o),
(62,487,cs),
(57,483,o,{
name = "🔷";
}),
(54,475,o),
(54,471,cs),
(54,455,o),
(62,445,o),
(71,443,cs),
(75,442,o),
(83,439,o),
(89,445,cs),
(129,490,o),
(266,541,o),
(307,514,cs),
(354,483,o),
(348,398,o),
(313,340,cs),
(280,284,o),
(112,152,o),
(-18,43,cs),
(-23,39,o),
(-26,33,o),
(-26,21,cs),
(-26,-4,o),
(-14,0,o),
(-3,0,cs),
(6,0,ls),
(10,0,o),
(14,0,o),
(18,0,c)
);
},
{
closed = 1;
nodes = (
(301,0,ls),
(321,0,o),
(327,13,o),
(327,25,cs),
(327,37,o),
(321,50,o),
(301,50,cs),
(-1,50,l),
(-1,0,l)
);
}
);
width = 354;
}
);
unicode = 50;
},
{
glyphname = three;
lastChange = "2022-02-22 06:35:05 +0000";
layers = (
{
layerId = m01;
shapes = (
{
closed = 1;
nodes = (
(50,499,o),
(55,482,o),
(60,474,cs),
(66,464,o),
(82,459,o),
(95,468,cs),
(199,538,o),
(292,533,o),
(292,499,cs),
(292,466,o),
(157,368,o),
(73,316,cs),
(56,305,o),
(59,288,o),
(63,280,cs),
(68,270,o),
(86,263,o),
(101,273,cs),
(224,355,o),
(343,437,o),
(342,499,cs),
(341,577,o),
(209,603,o),
(75,515,cs)
);
},
{
closed = 1;
nodes = (
(3,82,o),
(-11,70,o),
(-16,63,cs),
(-21,56,o),
(-26,43,o),
(-8,28,cs),
(105,-64,o),
(344,60,o),
(345,225,cs),
(346,336,o),
(242,393,o),
(87,324,c),
(103,275,l),
(252,342,o),
(295,285,o),
(295,225,cs),
(295,98,o),
(105,4,o),
(21,68,cs)
);
}
);
width = 338;
}
);
unicode = 51;
},
{
glyphname = four;
lastChange = "2022-02-22 06:31:19 +0000";
layers = (
{
layerId = m01;
shapes = (
{
closed = 1;
nodes = (
(39,135,o),
(47,146,o),
(49,158,c),
(116,546,l),
(117,553,o),
(112,568,o),
(90,568,cs),
(77,568,o),
(68,558,o),
(66,547,c),
(-3,159,l),
(-5,147,o),
(4,135,o),
(22,135,cs)
);
},
{
closed = 1;
nodes = (
(324,136,ls),
(344,136,o),
(350,145,o),
(350,157,cs),
(350,169,o),
(344,177,o),
(324,177,cs),
(28,177,ls),
(8,177,o),
(2,169,o),
(2,157,cs),
(2,145,o),
(8,136,o),
(28,136,cs)
);
},
{
closed = 1;
nodes = (
(135,31,ls),
(131,11,o),
(139,4,o),
(151,1,cs),
(163,-1,o),
(172,4,o),
(175,24,cs),
(227,315,ls),
(230,335,o),
(223,342,o),
(211,344,cs),
(200,346,o),
(190,342,o),
(186,322,cs)
);
}
);
width = 354;
}
);
unicode = 52;
},
{
glyphname = five;
lastChange = "2022-02-22 06:43:45 +0000";
layers = (
{
layerId = m01;
shapes = (
{
closed = 1;
nodes = (
(3,82,o),
(-11,70,o),
(-16,63,cs),
(-21,56,o),
(-26,43,o),
(-8,28,cs),
(105,-64,o),
(305,35,o),
(306,200,cs),
(307,311,o),
(194,386,o),
(39,330,c),
(55,281,l),
(204,335,o),
(254,249,o),
(254,200,cs),
(254,84,o),
(105,4,o),
(21,68,cs)
);
},
{
closed = 1;
nodes = (
(307,527,ls),
(327,527,o),
(333,536,o),
(333,548,cs),
(333,560,o),
(327,568,o),
(307,568,cs),
(101,568,ls),
(81,568,o),
(75,560,o),
(75,548,cs),
(75,536,o),
(81,527,o),
(101,527,cs)
);
},
{
closed = 1;
nodes = (
(71,280,o),
(73,298,o),
(74,303,cs),
(116,541,ls),
(117,548,o),
(117,556,o),
(115,560,cs),
(112,565,o),
(106,568,o),
(98,568,c),
(88,568,o),
(81,566,o),
(76,562,cs),
(71,558,o),
(67,551,o),
(65,541,cs),
(23,303,ls),
(22,295,o),
(23,280,o),
(45,280,cs)
);
}
);
width = 304;
}
);
unicode = 53;
},
{
glyphname = six;
lastChange = "2022-02-22 06:51:55 +0000";
layers = (
{
layerId = m01;
shapes = (
{
closed = 1;
nodes = (
(159,-4,o),
(265,156,o),
(265,245,cs),
(265,317,o),
(230,349,o),
(158,349,cs),
(132,349,o),
(117,344,o),
(92,331,cs),
(72,319,o),
(53,296,o),
(37,267,cs),
(29,252,o),
(17,225,o),
(7,194,cs),
(-2,165,o),
(-9,133,o),
(-9,103,cs),
(-9,18,o),
(16,-4,o),
(62,-4,cs)
);
},
{
closed = 1;
nodes = (
(41,46,o),
(41,75,o),
(41,103,cs),
(41,124,o),
(47,155,o),
(56,184,cs),
(63,210,o),
(76,233,o),
(84,249,cs),
(97,271,o),
(106,282,o),
(121,290,cs),
(136,297,o),
(143,299,o),
(157,299,cs),
(197,299,o),
(215,285,o),
(215,245,cs),
(215,180,o),
(125,46,o),
(68,46,cs)
);
},
{
closed = 1;
nodes = (
(48,158,l),
(65,254,o),
(65,340,o),
(131,437,cs),
(153,470,o),
(188,513,o),
(219,546,cs),
(226,553,o),
(222,568,o),
(200,568,cs),
(187,568,o),
(180,558,o),
(169,547,cs),
(142,520,o),
(112,483,o),
(90,451,cs),
(24,354,o),
(15,256,o),
(-2,159,c)
);
}
);
width = 255;
}
);
unicode = 54;
},
{
glyphname = seven;
lastChange = "2022-02-22 06:54:37 +0000";
layers = (
{
layerId = m01;
shapes = (
{
closed = 1;
nodes = (
(317,0,o),
(322,10,o),
(324,22,c),
(417,549,l),
(418,556,o),
(412,568,o),
(392,568,cs),
(381,568,o),
(369,560,o),
(367,549,c),
(274,22,l),
(272,10,o),
(282,0,o),
(300,0,cs)
);
},
{
closed = 1;
nodes = (
(388,527,ls),
(408,527,o),
(414,536,o),
(414,548,cs),
(414,560,o),
(408,568,o),
(388,568,cs),
(92,568,ls),
(72,568,o),
(66,560,o),
(66,548,cs),
(66,536,o),
(72,527,o),
(92,527,cs)
);
}
);
width = 351;
}
);
unicode = 55;
},
{
glyphname = eight;
lastChange = "2022-02-22 07:09:28 +0000";
layers = (
{
background = {
shapes = (
{
closed = 1;
nodes = (
(82,399,l),
(91,384,o),
(101,370,o),
(111,356,c),
(179,351,l),
(194,365,ls),
(201,372,o),
(209,379,o),
(217,386,c),
(182,424,l),
(166,408,o),
(154,396,o),
(148,391,c),
(138,404,o),
(130,415,o),
(124,426,c)
);
}
);
};
layerId = m01;
shapes = (
{
closed = 1;
nodes = (
(234,-4,o),
(282,107,o),
(282,161,cs,{
name = "💚";
}),
(282,215,o),
(231,268,o),
(192,307,cs),
(179,320,l,{
name = "❌";
}),
(111,325,l),
(50,280,o),
(0,227,o),
(0,161,cs),
(0,103,o),
(11,-4,o),
(110,-4,cs)
);
},
{
closed = 1;
nodes = (
(66,46,o),
(49,110,o),
(49,161,cs),
(49,205,o),
(92,249,o),
(143,285,c),
(155,273,ls),
(188,240,o),
(230,199,o),
(231,150,cs),
(232,109,o),
(185,46,o),
(109,46,cs)
);
},
{
closed = 1;
nodes = (
(153,350,l),
(130,372,o),
(97,402,o),
(97,425,cs),
(97,501,o),
(157,518,o),
(215,518,cs),
(246,518,o),
(285,506,o),
(291,490,cs),
(299,468,o),
(189,372,o),
(111,323,c),
(179,312,l),
(267,373,o),
(356,442,o),
(339,503,cs),
(323,557,o),
(240,568,o),
(215,568,cs),
(135,568,o),
(48,529,o),
(48,428,cs),
(48,386,o),
(85,350,o),
(111,323,c)
);
}
);
width = 287;
}
);
unicode = 56;
},
{
glyphname = nine;
lastChange = "2022-02-22 07:10:47 +0000";
layers = (
{
layerId = m01;
shapes = (
{
closed = 1;
nodes = (
(331,650,o),
(269,650,o),
(249,650,cs),
(192,650,o),
(133,633,o),
(95,576,cs),
(63,528,o),
(40,431,o),
(40,373,cs),
(40,322,o),
(60,296,o),
(93,296,cs),
(151,296,o),
(203,350,o),
(240,397,cs),
(293,463,o),
(341,540,o),
(364,592,cs),
(368,601,l),
(323,601,l),
(295,554,o),
(262,505,o),
(207,436,cs),
(160,377,o),
(123,347,o),
(108,347,cs),
(90,347,o),
(90,362,o),
(90,378,cs),
(90,416,o),
(108,506,o),
(134,545,cs),
(164,590,o),
(215,600,o),
(249,600,cs),
(256,600,o),
(324,600,o),
(332,600,c),
(343,600,l),
(343,602,o),
(343,647,o),
(343,650,c)
);
},
{
closed = 1;
nodes = (
(323,650,l),
(323,561,l),
(228,22,l),
(227,14,o),
(227,0,o),
(249,0,cs),
(275,0,o),
(277,17,o),
(278,22,c),
(385,628,l),
(387,640,o),
(381,650,o),
(369,650,c)
);
}
);
width = 305;
}
);
unicode = 57;
},
{
glyphname = period;
lastChange = "2022-02-22 07:28:18 +0000";
layers = (
{
layerId = m01;
shapes = (
{
closed = 1;
nodes = (
(83,-30,o),
(101,-12,o),
(101,7,cs),
(101,29,o),
(83,46,o),
(62,46,cs),
(42,46,o),
(26,28,o),
(26,7,cs),
(26,-11,o),
(42,-30,o),
(62,-30,cs)
);
}
);
width = 186;
}
);
metricLeft = n;
metricRight = n;
unicode = 46;
},
{
glyphname = comma;
lastChange = "2022-02-22 07:20:46 +0000";
layers = (
{
layerId = m01;
shapes = (
{
closed = 1;
nodes = (
(12,-71,ls),
(9,-91,o),
(21,-98,o),
(33,-101,cs),
(45,-103,o),
(57,-98,o),
(61,-78,cs),
(79,21,ls),
(83,41,o),
(71,48,o),
(59,50,cs),
(48,52,o),
(32,48,o),
(29,28,cs)
);
}
);
width = 161;
}
);
metricLeft = n;
metricRight = n;
unicode = 44;
},
{
glyphname = hyphen;
lastChange = "2022-02-22 07:29:57 +0000";
layers = (
{
layerId = m01;
shapes = (
{
closed = 1;
nodes = (
(226,133,ls),
(246,133,o),
(252,142,o),
(252,154,cs),
(252,166,o),
(246,174,o),
(226,174,cs),
(78,174,ls),
(58,174,o),
(52,166,o),
(52,154,cs),
(52,142,o),
(58,133,o),
(78,133,cs)
);
}
